<?xml version="1.0" encoding="utf-8"?><svg viewBox="0 0 13 12" xmlns="http://www.w3.org/2000/svg" xmlns:xlink="http://www.w3.org/1999/xlink"><style>:root>svg{display:none}:root>svg:target{display:block}</style><svg fill="none" viewBox="0 0 10 7" id="arrow" xmlns="http://www.w3.org/2000/svg"><path d="M3.5 5.999L1 3.499 3.5 1M1 3.5h8.106H1z"/></svg><svg fill="none" viewBox="0 0 10 12" id="arrow-down" xmlns="http://www.w3.org/2000/svg"><path clip-rule="evenodd" d="M4.732 1h.58a.34.34 0 01.338.339v8.26l2.398-2.397a.318.318 0 01.448 0l.384.384a.318.318 0 010 .449c-.306.307-3.409 3.62-3.569 3.62h-.58c-.195 0-3.234-3.216-3.638-3.62a.318.318 0 010-.449l.384-.384a.318.318 0 01.449 0l2.466 2.466v-8.33A.34.34 0 014.73 1h.002z" stroke="#fff" stroke-width=".529" stroke-miterlimit="22.926"/></svg><svg fill="none" viewBox="0 0 13 5" id="logo" xmlns="http://www.w3.org/2000/svg"><path d="M4.388 3.8h-.213a.234.234 0 00.041.134c.02.025.042.038.07.038a.075.075 0 00.044-.015.187.187 0 00.044-.055l.014.01a.257.257 0 01-.07.1.143.143 0 01-.088.029.144.144 0 01-.131-.073.274.274 0 01-.036-.146c0-.07.018-.127.053-.17a.157.157 0 01.123-.062.13.13 0 01.102.053.257.257 0 01.047.157zm-.102-.03a.468.468 0 00-.007-.1.086.086 0 00-.023-.042.033.033 0 00-.023-.008c-.014 0-.026.008-.035.023a.216.216 0 00-.025.111v.016h.113zm.42-.179l.006.146h-.015a.232.232 0 00-.052-.088.082.082 0 00-.053-.024.038.038 0 00-.03.013.04.04 0 00-.011.028.04.04 0 00.008.024.414.414 0 00.074.064.32.32 0 01.08.077c.013.02.02.044.02.07a.161.161 0 01-.017.07.118.118 0 01-.11.07.203.203 0 01-.074-.019.059.059 0 00-.017-.005c-.01 0-.017.008-.023.023h-.014l-.007-.153h.014a.2.2 0 00.051.09c.022.02.042.03.062.03a.043.043 0 00.032-.014.046.046 0 00.012-.032.06.06 0 00-.012-.038.342.342 0 00-.055-.048.46.46 0 01-.082-.073.14.14 0 01.003-.171c.021-.027.05-.04.09-.04a.12.12 0 01.06.017.038.038 0 00.019.007.02.02 0 00.011-.004.093.093 0 00.015-.02h.014zm.355 0l.006.146h-.015A.23.23 0 005 3.649a.082.082 0 00-.053-.024.038.038 0 00-.03.013.04.04 0 00-.004.053.414.414 0 00.075.063c.04.03.067.056.08.077.013.02.019.044.019.07a.161.161 0 01-.016.07.12.12 0 01-.11.07.203.203 0 01-.074-.019.06.06 0 00-.017-.005c-.01 0-.017.008-.023.023h-.014l-.007-.153h.014c.013.04.03.07.051.09.022.02.042.03.062.03a.043.043 0 00.032-.014.046.046 0 00.013-.032.06.06 0 00-.013-.038.335.335 0 00-.055-.048.454.454 0 01-.082-.073.14.14 0 01.004-.171c.02-.027.05-.04.089-.04a.12.12 0 01.06.017.037.037 0 00.019.007.02.02 0 00.012-.004.093.093 0 00.014-.02h.015zm.324.375c-.047.046-.09.069-.128.069a.073.073 0 01-.055-.024.086.086 0 01-.022-.06c0-.033.013-.062.038-.088a.712.712 0 01.167-.103v-.043a.223.223 0 00-.005-.061.047.047 0 00-.018-.022.051.051 0 00-.03-.009.071.071 0 00-.045.013c-.007.006-.01.012-.01.02 0 .006.003.014.011.023a.06.06 0 01.016.038.053.053 0 01-.055.054.061.061 0 01-.043-.018.055.055 0 01-.018-.04.1.1 0 01.024-.063.15.15 0 01.065-.046.25.25 0 01.089-.015c.037 0 .066.008.087.025a.12.12 0 01.042.056.404.404 0 01.006.088v.165c0 .019 0 .031.002.036a.022.022 0 00.006.012.015.015 0 00.01.003c.007 0 .014-.005.022-.016l.013.01a.161.161 0 01-.043.05.087.087 0 01-.05.015.075.075 0 01-.053-.017.081.081 0 01-.023-.052zm0-.034V3.79a.253.253 0 00-.075.07.09.09 0 00-.016.05c0 .013.005.025.014.036a.036.036 0 00.029.012c.014 0 .03-.008.048-.026zm.413.115l-.125-.316a.45.45 0 00-.042-.09.071.071 0 00-.032-.022v-.016h.206v.016c-.013 0-.023.003-.028.008a.025.025 0 00-.008.02c0 .01.007.034.02.068l.067.168.045-.13a.358.358 0 00.025-.096.037.037 0 00-.01-.027c-.008-.007-.02-.01-.037-.011v-.016h.13v.016a.048.048 0 00-.032.016.431.431 0 00-.04.096l-.11.316a.718.718 0 01-.063.146.087.087 0 01-.072.038.075.075 0 01-.055-.022.07.07 0 01-.022-.052c0-.018.005-.032.015-.044a.046.046 0 01.036-.017c.014 0 .026.004.034.014.008.01.013.025.013.046 0 .012.002.019.003.022a.012.012 0 00.01.006c.007 0 .014-.005.021-.014a.298.298 0 00.04-.088l.011-.034zm.868-.006l-.106-.313-.105.313h-.021l-.104-.308a.379.379 0 00-.04-.093.057.057 0 00-.03-.022v-.016h.195v.016c-.013 0-.022.003-.027.007a.019.019 0 00-.007.015c0 .005.004.02.013.047l.057.166.055-.167-.004-.01a.14.14 0 00-.022-.044.053.053 0 00-.029-.013v-.016h.199v.016c-.015 0-.025.003-.03.007-.004.004-.006.009-.006.016a.19.19 0 00.012.045l.055.166.05-.153a.186.186 0 00.01-.045c0-.012-.002-.02-.007-.026-.005-.006-.016-.01-.031-.01v-.016h.115v.016a.048.048 0 00-.03.015.231.231 0 00-.029.07l-.11.338h-.023zm.415-.438V3.7a.302.302 0 01.067-.088.093.093 0 01.056-.021c.015 0 .028.005.037.015.01.01.014.025.014.045 0 .02-.005.036-.014.047a.04.04 0 01-.032.017.052.052 0 01-.038-.016.197.197 0 00-.019-.017.016.016 0 00-.01-.003.032.032 0 00-.022.01.097.097 0 00-.026.044.34.34 0 00-.013.098v.123c0 .018.001.03.003.034a.035.035 0 00.015.018.08.08 0 00.033.007v.016h-.21v-.016c.017-.001.028-.006.034-.015.006-.009.009-.032.009-.069v-.236a.19.19 0 00-.003-.047.036.036 0 00-.012-.02.059.059 0 00-.028-.007v-.016h.159zm.333-.207c.018 0 .033.007.046.021.012.014.018.03.018.05 0 .02-.006.036-.018.05a.06.06 0 01-.046.02.06.06 0 01-.045-.02.07.07 0 01-.019-.05c0-.02.006-.036.019-.05a.058.058 0 01.045-.02zm.058.207v.338c0 .03.004.05.01.058.007.008.02.013.038.014v.016h-.212v-.016c.018 0 .03-.006.04-.016.005-.007.008-.026.008-.056v-.25c0-.03-.003-.05-.01-.058-.006-.008-.02-.013-.038-.014v-.016h.164zm.263-.157v.157h.092v.044h-.092v.264c0 .025.001.04.003.048a.033.033 0 00.011.017c.005.004.01.007.015.007.018 0 .035-.015.05-.045l.013.01c-.022.058-.058.087-.109.087a.1.1 0 01-.095-.073.474.474 0 01-.004-.084v-.23h-.051v-.016a.545.545 0 00.154-.186h.013zm.247-.05c.018 0 .033.007.045.021.013.014.019.03.019.05 0 .02-.006.036-.019.05a.06.06 0 01-.045.02.06.06 0 01-.046-.02.07.07 0 01-.018-.05c0-.02.006-.036.018-.05a.058.058 0 01.046-.02zm.058.207v.338c0 .03.003.05.01.058.006.008.019.013.038.014v.016h-.212v-.016c.018 0 .03-.006.039-.016.006-.007.009-.026.009-.056v-.25c0-.03-.004-.05-.01-.058-.007-.008-.02-.013-.038-.014v-.016h.164zm.268 0v.055a.232.232 0 01.057-.051.114.114 0 01.059-.016c.025 0 .046.007.063.023a.113.113 0 01.033.057c.004.017.006.05.006.1v.166c0 .033.003.053.008.061.006.008.017.013.034.015v.016h-.197v-.016a.041.041 0 00.032-.02.146.146 0 00.007-.056v-.19a.336.336 0 00-.004-.066.043.043 0 00-.013-.022.03.03 0 00-.02-.007c-.023 0-.045.018-.065.055v.23c0 .032.002.052.008.06.005.009.015.014.03.016v.016H8.15v-.016c.016-.002.027-.008.034-.017.005-.007.007-.027.007-.06v-.241c0-.033-.002-.053-.008-.06-.005-.009-.016-.014-.033-.017v-.016h.158zm.587.005h.13v.05h-.074a.156.156 0 01.028.041c.007.017.01.034.01.052 0 .03-.007.056-.023.078a.157.157 0 01-.063.053.168.168 0 01-.07.018l-.05-.002a.041.041 0 00-.031.014.046.046 0 00-.013.032c0 .011.004.02.012.027.007.007.02.01.037.01h.072c.058 0 .098.007.12.02.032.02.048.05.048.09a.128.128 0 01-.078.117.382.382 0 01-.22.011.131.131 0 01-.062-.03.06.06 0 01-.019-.042c0-.013.005-.026.014-.037a.11.11 0 01.054-.028c-.036-.02-.054-.047-.054-.081 0-.021.007-.042.022-.062a.173.173 0 01.07-.052.17.17 0 01-.081-.058.145.145 0 01-.025-.084c0-.042.016-.078.047-.108.03-.03.07-.046.119-.046a.2.2 0 01.08.018zm-.072.011c-.016 0-.03.01-.04.027-.012.018-.017.054-.017.11 0 .045.005.076.016.093s.024.025.039.025c.017 0 .03-.008.041-.025.011-.016.017-.049.017-.097 0-.054-.006-.091-.019-.11a.041.041 0 00-.037-.023zm-.024.474a.129.129 0 00-.056.007c-.016.01-.024.022-.024.038s.008.03.025.042c.016.013.047.019.092.019a.205.205 0 00.09-.017c.023-.01.034-.027.034-.047a.03.03 0 00-.006-.019.059.059 0 00-.034-.018.85.85 0 00-.121-.005zm.753-.502l.006.146h-.014a.232.232 0 00-.052-.088.082.082 0 00-.054-.024.039.039 0 00-.028.012.04.04 0 00-.004.053.407.407 0 00.074.064c.04.03.067.056.08.077.012.02.019.044.019.07a.16.16 0 01-.016.07.12.12 0 01-.11.07.203.203 0 01-.074-.019.058.058 0 00-.017-.005c-.01 0-.017.008-.023.023h-.015l-.006-.153h.014c.012.04.03.07.051.09.022.02.042.03.061.03a.043.043 0 00.033-.013.046.046 0 00.012-.033.06.06 0 00-.012-.038.339.339 0 00-.055-.048.448.448 0 01-.082-.073.14.14 0 01.004-.171c.02-.027.05-.04.088-.04a.12.12 0 01.061.017.038.038 0 00.018.007.02.02 0 00.012-.004.094.094 0 00.015-.02h.014zm.44.21h-.214a.233.233 0 00.042.133c.019.026.042.038.068.038a.075.075 0 00.046-.015.187.187 0 00.043-.055l.015.01a.257.257 0 01-.07.1.143.143 0 01-.089.03.144.144 0 01-.13-.074.275.275 0 01-.036-.145c0-.071.017-.128.052-.17a.157.157 0 01.123-.063.13.13 0 01.103.053.258.258 0 01.047.157zm-.102-.03a.468.468 0 00-.008-.101.086.086 0 00-.022-.041.033.033 0 00-.024-.009c-.014 0-.026.008-.035.023a.216.216 0 00-.024.112v.015h.113zm.335-.168V3.7a.303.303 0 01.068-.088.094.094 0 01.055-.021c.015 0 .028.005.037.015.01.01.014.025.014.045 0 .02-.004.036-.013.047a.04.04 0 01-.033.017.052.052 0 01-.038-.016.192.192 0 00-.019-.017.016.016 0 00-.01-.003.032.032 0 00-.022.01.098.098 0 00-.025.044.34.34 0 00-.014.098v.123c0 .018.002.03.004.034a.034.034 0 00.015.018.079.079 0 00.033.007v.016h-.211v-.016c.017-.001.028-.006.034-.015.007-.009.01-.032.01-.069v-.236a.204.204 0 00-.004-.047.037.037 0 00-.012-.02.06.06 0 00-.028-.007v-.016h.16-.001zm.417.438l-.132-.33a.334.334 0 00-.037-.076.048.048 0 00-.028-.016v-.016h.206v.016c-.012 0-.021.002-.026.007a.033.033 0 00-.01.024c0 .012.006.033.018.064l.064.16.051-.138a.293.293 0 00.022-.084.03.03 0 00-.01-.023c-.005-.006-.016-.01-.032-.01v-.016h.126v.016a.049.049 0 00-.03.015.292.292 0 00-.034.073l-.13.335h-.018zm.366-.645a.06.06 0 01.046.021c.012.014.018.03.018.05a.07.07 0 01-.019.05.06.06 0 01-.045.02.06.06 0 01-.045-.02.07.07 0 01-.02-.05c0-.02.007-.036.02-.05a.058.058 0 01.045-.02zm.058.207v.338c0 .03.003.05.01.058.006.008.019.013.038.015v.015h-.212v-.015c.018-.001.03-.007.04-.017.005-.007.008-.026.008-.056v-.25c0-.03-.003-.05-.01-.058-.006-.008-.02-.013-.038-.014v-.016h.164zm.425.316l.013.01a.206.206 0 01-.068.085.153.153 0 01-.087.027.145.145 0 01-.124-.064.256.256 0 01-.047-.154c0-.058.014-.11.042-.153a.16.16 0 01.141-.08c.04 0 .072.012.096.034a.1.1 0 01.035.074.06.06 0 01-.014.041.05.05 0 01-.038.016.052.052 0 01-.04-.018c-.01-.012-.017-.033-.02-.063-.001-.02-.006-.033-.012-.04a.029.029 0 00-.022-.012c-.014 0-.025.008-.034.023a.21.21 0 00-.022.108c0 .04.006.078.017.114a.18.18 0 00.048.082.08.08 0 00.093.01.189.189 0 00.043-.04zm.415-.119h-.214a.233.233 0 00.042.134c.019.026.042.038.069.038a.075.075 0 00.045-.015.187.187 0 00.044-.055l.014.01a.256.256 0 01-.07.1.142.142 0 01-.089.03.144.144 0 01-.13-.074.275.275 0 01-.036-.145c0-.071.017-.128.052-.17a.157.157 0 01.124-.063.13.13 0 01.102.053.257.257 0 01.047.157zm-.102-.03a.465.465 0 00-.008-.1.085.085 0 00-.022-.041.032.032 0 00-.024-.009c-.014 0-.025.008-.035.023a.215.215 0 00-.024.112v.015h.113zM5.012 1.413l.012.543h-.046a.57.57 0 00-.159-.328.388.388 0 00-.274-.124.243.243 0 00-.18.065.204.204 0 00-.043.247.397.397 0 00.104.111c.035.027.115.074.242.14.177.094.296.182.358.266a.468.468 0 01.091.285c0 .136-.05.252-.148.35a.51.51 0 01-.375.147.57.57 0 01-.135-.016.919.919 0 01-.16-.058.228.228 0 00-.088-.024c-.019 0-.04.008-.06.024a.168.168 0 00-.053.074h-.04v-.614h.04a.723.723 0 00.189.395c.093.09.193.136.301.136.084 0 .15-.025.2-.074a.232.232 0 00.045-.281.35.35 0 00-.086-.103 1.308 1.308 0 00-.205-.126 1.726 1.726 0 01-.297-.186.566.566 0 01-.138-.171.452.452 0 01-.048-.21.459.459 0 01.467-.468.54.54 0 01.27.073c.05.025.085.038.105.038.02 0 .035-.006.046-.019a.227.227 0 00.03-.092h.035zm1.284 1.11l.413-1.073h.611v.042h-.049a.196.196 0 00-.106.025.115.115 0 00-.045.058.557.557 0 00-.012.152V2.8a.6.6 0 00.012.158c.009.02.025.039.05.055a.185.185 0 00.101.024h.05v.041h-.787v-.041h.048c.045 0 .08-.01.107-.026a.116.116 0 00.044-.058.55.55 0 00.012-.152V1.595l-.58 1.483h-.027L5.55 1.606v1.146c0 .08.002.13.005.148.01.04.031.073.063.098.033.026.084.039.153.039v.041h-.518v-.041h.016a.216.216 0 00.093-.018c.03-.013.051-.03.066-.05a.229.229 0 00.035-.089c.001-.009.002-.05.002-.124V1.728a.57.57 0 00-.012-.157.118.118 0 00-.05-.055.19.19 0 00-.102-.024h-.048V1.45h.616l.427 1.074zm2.011.091h-.529l-.065.159a.376.376 0 00-.031.132c0 .046.017.08.05.102.02.013.07.023.149.03v.041h-.502v-.041a.22.22 0 00.133-.074.996.996 0 00.13-.248l.539-1.297h.021l.545 1.333a.842.842 0 00.128.242c.025.025.06.04.107.044v.041h-.73v-.041h.03c.058 0 .1-.01.123-.027.017-.013.025-.032.025-.056a.158.158 0 00-.007-.045 1.216 1.216 0 00-.033-.092l-.083-.203zm-.036-.088l-.225-.555-.23.555h.455zm1.343-.19v.46c0 .087.005.143.015.166.01.023.028.04.053.054.025.014.072.02.141.02v.042h-.772v-.041c.07 0 .117-.007.142-.021a.116.116 0 00.052-.055.522.522 0 00.015-.165V1.732a.523.523 0 00-.015-.165.113.113 0 00-.053-.055.336.336 0 00-.141-.02V1.45h.702c.182 0 .316.013.4.04a.424.424 0 01.288.409.4.4 0 01-.12.299.481.481 0 01-.215.111l.362.552a.83.83 0 00.102.133c.03.024.066.038.106.04v.044h-.475l-.488-.742h-.1zm0-.795v.71h.063c.104 0 .181-.01.232-.03a.237.237 0 00.121-.11.426.426 0 00.045-.208c0-.123-.027-.215-.082-.274-.054-.059-.14-.088-.26-.088h-.12zm2.399-.091v.44h-.04a.727.727 0 00-.078-.219.305.305 0 00-.12-.106.355.355 0 00-.148-.021h-.114V2.8c0 .084.004.136.013.157.008.021.025.04.05.055a.183.183 0 00.1.024h.05v.042h-.787v-.042h.05a.195.195 0 00.104-.025.116.116 0 00.046-.059.546.546 0 00.012-.152V1.544h-.11c-.1 0-.174.023-.22.07a.476.476 0 00-.122.276h-.043v-.44h1.357z" fill="#fff"/><path d="M2.239 3.57c-.004-.074-.001-.946 0-1.011a.215.215 0 11.43 0c0 .119-.093.2-.211.2h-.744c-.12 0-.211-.082-.211-.2a.215.215 0 11.43 0v1.033l.306-.022zm-.46.339h.671c.054 0 .097.063.097.14v.005c0 .077-.043.14-.097.14h-.672c-.053 0-.096-.063-.096-.14v-.006c0-.076.043-.14.096-.14v.001zm-.143-.317h.956c.076 0 .137.062.137.138v.005a.138.138 0 01-.137.138h-.956a.138.138 0 01-.137-.138V3.73c0-.076.062-.138.137-.138zM2.114 1a1.114 1.114 0 01.465 2.127l.001.463h-.926c-.002-.054-.001-.088 0-.461A1.115 1.115 0 012.113 1v0z" stroke="#F7705A" stroke-width=".14" stroke-miterlimit="22.926"/></svg></svg>