<svg width="10" height="12" viewBox="0 0 10 12" fill="none" xmlns="http://www.w3.org/2000/svg">
<path fill-rule="evenodd" clip-rule="evenodd" d="M4.73178 1H5.3116C5.49795 1 5.6502 1.15225 5.6502 1.3386V9.59947L8.04759 7.20208C8.17117 7.0785 8.37285 7.0785 8.49642 7.20208L8.8805 7.58616C9.00408 7.70973 9.00408 7.91191 8.8805 8.03499C8.57354 8.34195 5.47126 11.6558 5.31111 11.6558H4.73128C4.53554 11.6558 1.49653 8.43884 1.09268 8.03499C0.969106 7.91141 0.969106 7.70973 1.09268 7.58616L1.47676 7.20208C1.60034 7.0785 1.80251 7.0785 1.92559 7.20208L4.39169 9.66818V1.3386C4.39169 1.15225 4.54394 1 4.73029 1H4.73178Z" stroke="white" stroke-width="0.529404" stroke-miterlimit="22.9256"/>
</svg>
