<svg width="13" height="5" viewBox="0 0 13 5" fill="none" xmlns="http://www.w3.org/2000/svg">
<path d="M4.38836 3.80018H4.17484C4.17738 3.85658 4.19126 3.90135 4.21617 3.93402C4.23527 3.95924 4.25825 3.97177 4.28511 3.97177C4.30182 3.97177 4.31689 3.96655 4.33047 3.95655C4.34404 3.94641 4.35867 3.92805 4.37404 3.90179L4.38821 3.91194C4.36717 3.95879 4.34375 3.99207 4.31838 4.01161C4.29287 4.03101 4.26332 4.04086 4.22975 4.04086C4.17231 4.04086 4.12859 4.01654 4.0989 3.96804C4.07502 3.92895 4.06309 3.88061 4.06309 3.82242C4.06309 3.75139 4.08069 3.69484 4.11576 3.65292C4.15082 3.61099 4.19185 3.58995 4.23885 3.58995C4.27809 3.58995 4.31226 3.60756 4.34121 3.64292C4.37016 3.67828 4.38567 3.73065 4.38791 3.80003L4.38806 3.80018H4.38836ZM4.2863 3.77034C4.2863 3.72155 4.28391 3.68798 4.27914 3.66963C4.27407 3.65142 4.26661 3.6377 4.25646 3.6283C4.25064 3.62278 4.24288 3.61994 4.23303 3.61994C4.21856 3.61994 4.20692 3.6277 4.19767 3.64307C4.18141 3.67022 4.1732 3.70723 4.1732 3.75438V3.77019H4.2863V3.77034ZM4.70572 3.59129L4.71169 3.73692H4.69722C4.68051 3.6938 4.66305 3.6644 4.64515 3.64859C4.62724 3.63292 4.60934 3.62501 4.59158 3.62501C4.58039 3.62501 4.57069 3.62919 4.56278 3.63755C4.55473 3.6459 4.55085 3.6556 4.55085 3.66649C4.55085 3.67455 4.55368 3.68246 4.5592 3.69007C4.56801 3.70245 4.59277 3.72364 4.63306 3.75378C4.67364 3.78407 4.70005 3.80973 4.71289 3.83062C4.72572 3.85151 4.73213 3.87524 4.73213 3.9012C4.73213 3.92477 4.72661 3.94805 4.71587 3.97073C4.70528 3.99356 4.69021 4.01087 4.67051 4.0231C4.65097 4.03519 4.62948 4.0413 4.60576 4.0413C4.5874 4.0413 4.56263 4.03504 4.5319 4.02206C4.52354 4.01877 4.51802 4.01698 4.51474 4.01698C4.50564 4.01698 4.49818 4.02474 4.49206 4.04026H4.47759L4.47072 3.88732H4.4852C4.49758 3.92716 4.51444 3.957 4.53622 3.977C4.55771 3.99699 4.57815 4.00684 4.59755 4.00684C4.61083 4.00684 4.62172 4.00221 4.62993 3.99341C4.63828 3.98446 4.64246 3.97371 4.64246 3.96103C4.64246 3.94641 4.63843 3.93387 4.63023 3.92313C4.62187 3.91254 4.60337 3.89657 4.57487 3.87509C4.53264 3.84286 4.50549 3.81839 4.49295 3.80153C4.47475 3.77661 4.46565 3.74915 4.46565 3.71916C4.46565 3.68634 4.4758 3.6568 4.49639 3.63039C4.51698 3.60383 4.54667 3.59055 4.58546 3.59055C4.6065 3.59055 4.62679 3.59637 4.64634 3.60771C4.6538 3.61233 4.65977 3.61472 4.66454 3.61472C4.66962 3.61472 4.6735 3.61338 4.67648 3.61114C4.67946 3.60875 4.68424 3.60219 4.69095 3.59129H4.70543L4.70528 3.59144L4.70572 3.59129ZM5.06069 3.59129L5.06666 3.73692H5.05218C5.03547 3.6938 5.01817 3.6644 5.00011 3.64859C4.98221 3.63292 4.96445 3.62501 4.94655 3.62501C4.9355 3.62501 4.92581 3.62919 4.9179 3.63755C4.90984 3.6459 4.90596 3.6556 4.90596 3.66649C4.90596 3.67455 4.90865 3.68246 4.91417 3.69007C4.92297 3.70245 4.94774 3.72364 4.98803 3.75378C5.02846 3.78407 5.05502 3.80973 5.06785 3.83062C5.08068 3.85151 5.08695 3.87524 5.08695 3.9012C5.08695 3.92477 5.08158 3.94805 5.07084 3.97073C5.06024 3.99356 5.04502 4.01087 5.02548 4.0231C5.00593 4.03519 4.98444 4.0413 4.96072 4.0413C4.94237 4.0413 4.9176 4.03504 4.88686 4.02206C4.87851 4.01877 4.87299 4.01698 4.86985 4.01698C4.86075 4.01698 4.85329 4.02474 4.84717 4.04026H4.8327L4.82584 3.88732H4.84031C4.85254 3.92716 4.86955 3.957 4.89119 3.977C4.91282 3.99699 4.93327 4.00684 4.95251 4.00684C4.96579 4.00684 4.97669 4.00221 4.98504 3.99341C4.9934 3.98446 4.99757 3.97371 4.99757 3.96103C4.99757 3.94641 4.9934 3.93387 4.98519 3.92313C4.97683 3.91254 4.95848 3.89657 4.92983 3.87509C4.88761 3.84286 4.8603 3.81839 4.84792 3.80153C4.82987 3.77661 4.82076 3.74915 4.82076 3.71916C4.82076 3.68634 4.83091 3.6568 4.8515 3.63039C4.87209 3.60383 4.90193 3.59055 4.94073 3.59055C4.96176 3.59055 4.98206 3.59637 5.0016 3.60771C5.00891 3.61233 5.01503 3.61472 5.01966 3.61472C5.02473 3.61472 5.02876 3.61338 5.03174 3.61114C5.03473 3.60875 5.0395 3.60219 5.04622 3.59129H5.06069L5.06039 3.59144L5.06069 3.59129ZM5.38507 3.96566C5.33777 4.01161 5.29509 4.03474 5.25749 4.03474C5.23526 4.03474 5.21676 4.02668 5.20199 4.01072C5.18752 3.9949 5.18006 3.97476 5.18006 3.95088C5.18006 3.91836 5.19289 3.88911 5.2184 3.86315C5.24392 3.83719 5.29942 3.80272 5.38507 3.7596V3.71678C5.38507 3.6847 5.38358 3.66455 5.38029 3.65605C5.37716 3.64784 5.37104 3.64053 5.36224 3.63441C5.35329 3.62815 5.34329 3.62501 5.3321 3.62501C5.31404 3.62501 5.29912 3.62934 5.28749 3.63829C5.28017 3.64366 5.27674 3.65008 5.27674 3.65739C5.27674 3.66381 5.28047 3.67157 5.28838 3.68097C5.29897 3.6941 5.30405 3.70663 5.30405 3.71872C5.30405 3.73349 5.29897 3.74632 5.28898 3.75676C5.27883 3.76721 5.2657 3.77243 5.24944 3.77243C5.23198 3.77243 5.21751 3.76661 5.20557 3.75527C5.19378 3.74378 5.18781 3.73021 5.18781 3.71484C5.18781 3.6929 5.19572 3.67187 5.21154 3.65202C5.2275 3.63233 5.24929 3.61696 5.27749 3.60636C5.30584 3.59577 5.33523 3.59055 5.36567 3.59055C5.40252 3.59055 5.43162 3.5992 5.45311 3.61621C5.47444 3.63337 5.48847 3.65187 5.49488 3.67187C5.49861 3.6847 5.5007 3.71379 5.5007 3.7596V3.92477C5.5007 3.94402 5.50145 3.95626 5.50279 3.96133C5.50413 3.9664 5.50622 3.96998 5.50906 3.97252C5.51189 3.97476 5.51503 3.97595 5.51861 3.97595C5.52607 3.97595 5.53338 3.97058 5.54099 3.95969L5.55352 3.97028C5.5398 3.99281 5.52532 4.00922 5.51055 4.01952C5.49578 4.02967 5.47892 4.03489 5.46012 4.03489C5.43804 4.03489 5.42058 4.02907 5.40805 4.01773C5.39566 4.00624 5.3882 3.98908 5.38537 3.9658H5.38492L5.38507 3.96566ZM5.38507 3.93208V3.79019C5.35164 3.81182 5.32673 3.8348 5.31031 3.85942C5.29957 3.87583 5.29405 3.89239 5.29405 3.90911C5.29405 3.92298 5.29868 3.93537 5.30778 3.94596C5.31464 3.95417 5.32434 3.95819 5.33672 3.95819C5.3506 3.95819 5.36671 3.94954 5.38492 3.93208H5.38507ZM5.79822 4.04742L5.67289 3.7305C5.65394 3.68231 5.64006 3.65262 5.63126 3.64158C5.62216 3.63053 5.61142 3.62293 5.59873 3.6186V3.60263H5.80539V3.6186C5.79196 3.61919 5.78226 3.62203 5.77674 3.62725C5.77122 3.63262 5.76868 3.63874 5.76868 3.6462C5.76868 3.65769 5.77554 3.68067 5.78927 3.71514L5.85567 3.88329L5.90103 3.75363C5.91729 3.70723 5.9255 3.67485 5.9255 3.6568C5.9255 3.64546 5.92207 3.63635 5.91535 3.62964C5.90849 3.62292 5.89655 3.61919 5.87939 3.6186V3.60263H6.00846V3.6186C5.99577 3.62024 5.98533 3.62561 5.97727 3.63486C5.96922 3.64426 5.95594 3.67604 5.93699 3.7305L5.82642 4.04697C5.79852 4.12576 5.77778 4.17455 5.7642 4.1926C5.74511 4.21811 5.72123 4.23095 5.69244 4.23095C5.66946 4.23095 5.65081 4.22364 5.63663 4.20916C5.62216 4.19469 5.61529 4.17738 5.61529 4.15694C5.61529 4.13918 5.62022 4.12456 5.63007 4.11307C5.63991 4.10143 5.652 4.09562 5.66647 4.09562C5.68035 4.09562 5.69169 4.10039 5.70004 4.11024C5.7084 4.12009 5.71288 4.1353 5.71318 4.1559C5.71332 4.16753 5.71452 4.17499 5.71646 4.17828C5.71899 4.18171 5.72213 4.1835 5.72631 4.1835C5.73287 4.1835 5.73988 4.17917 5.74734 4.17022C5.75839 4.15739 5.77137 4.12799 5.78629 4.08234L5.79837 4.04772V4.04757L5.79822 4.04742ZM6.66646 4.0413L6.55963 3.72767L6.45519 4.0413H6.43355L6.33 3.73259C6.31463 3.685 6.30135 3.65411 6.29076 3.63964C6.28389 3.62979 6.2733 3.62278 6.25913 3.61845V3.60248H6.45548V3.61845C6.4422 3.61845 6.43295 3.62069 6.42803 3.62501C6.42296 3.62919 6.42072 3.63426 6.42072 3.63979C6.42072 3.64501 6.42505 3.66067 6.43385 3.68694L6.4907 3.8533L6.54575 3.68649L6.54217 3.67574C6.53382 3.65277 6.52651 3.638 6.52039 3.63173C6.51412 3.62546 6.50457 3.62099 6.49144 3.6186V3.60263H6.68989V3.6186C6.67452 3.61949 6.66467 3.62188 6.66035 3.62576C6.65617 3.62964 6.65423 3.63501 6.65423 3.64202C6.65423 3.64889 6.65826 3.66381 6.66631 3.68708L6.72107 3.85345L6.77091 3.70036C6.77807 3.67813 6.7818 3.66321 6.7818 3.65515C6.7818 3.64322 6.77897 3.63441 6.77374 3.62889C6.76852 3.62337 6.75838 3.61994 6.74301 3.61875V3.60278H6.85849V3.61875C6.84566 3.62054 6.83567 3.62561 6.8282 3.63382C6.82074 3.64202 6.81105 3.66515 6.79926 3.70335L6.68959 4.04175H6.66617L6.66602 4.0416L6.66646 4.0413ZM7.08052 3.60263L7.08081 3.69977C7.10633 3.65575 7.12886 3.62651 7.14811 3.61218C7.16735 3.59771 7.18586 3.59055 7.20376 3.59055C7.21913 3.59055 7.23166 3.59577 7.24091 3.60621C7.25016 3.61666 7.25464 3.63143 7.25464 3.65053C7.25464 3.67067 7.25016 3.68664 7.24121 3.69783C7.23226 3.70902 7.22152 3.71469 7.20868 3.71469C7.19406 3.71469 7.18153 3.70947 7.17094 3.69917C7.16019 3.68873 7.15378 3.68306 7.15199 3.68201C7.14915 3.68007 7.14602 3.67918 7.14244 3.67918C7.13453 3.67918 7.12677 3.68246 7.11991 3.68917C7.10857 3.69962 7.10006 3.71439 7.09424 3.73349C7.08544 3.76288 7.08111 3.79556 7.08111 3.83107L7.08141 3.9288V3.95446C7.08141 3.97192 7.08245 3.98311 7.08439 3.98804C7.08768 3.99624 7.0926 4.00236 7.09917 4.00609C7.10588 4.00997 7.11692 4.01236 7.13244 4.01325V4.02922H6.92161V4.01325C6.93862 4.01161 6.95011 4.00654 6.95608 3.99788C6.96204 3.98923 6.96503 3.9664 6.96503 3.92925V3.6932C6.96503 3.66843 6.96398 3.65277 6.9616 3.6459C6.95891 3.63725 6.95473 3.63083 6.94951 3.62695C6.94429 3.62293 6.93489 3.62009 6.92161 3.6186V3.60263H7.08066L7.08081 3.60248L7.08052 3.60263ZM7.41414 3.39628C7.4322 3.39628 7.44742 3.40314 7.4598 3.41702C7.47219 3.43089 7.47845 3.44746 7.47845 3.46685C7.47845 3.4864 7.47219 3.50296 7.45965 3.51669C7.44712 3.53042 7.4319 3.53713 7.41414 3.53713C7.39639 3.53713 7.38132 3.53027 7.36878 3.51669C7.35625 3.50296 7.35013 3.48655 7.35013 3.46685C7.35013 3.44746 7.3564 3.43075 7.36878 3.41702C7.38117 3.40314 7.39624 3.39628 7.41414 3.39628ZM7.47248 3.60263V3.94059C7.47248 3.97088 7.47562 3.99042 7.48203 3.99893C7.4886 4.00728 7.50113 4.01206 7.52008 4.0134V4.02937H7.30836V4.0134C7.32596 4.01266 7.33879 4.00728 7.34745 3.99684C7.35312 3.98983 7.35595 3.97088 7.35595 3.94059V3.69141C7.35595 3.66097 7.35267 3.64158 7.3461 3.63307C7.33954 3.62472 7.32686 3.61994 7.30836 3.6186V3.60263H7.47248L7.47263 3.60248L7.47248 3.60263ZM7.73524 3.44582V3.60263H7.827V3.6474H7.73524V3.9109C7.73524 3.93552 7.73628 3.95133 7.73837 3.95864C7.74031 3.9658 7.74404 3.97147 7.74926 3.9758C7.75449 3.98043 7.75941 3.98252 7.76374 3.98252C7.78179 3.98252 7.79865 3.9676 7.81462 3.93775L7.82715 3.94775C7.80477 4.00579 7.76851 4.03489 7.71808 4.03489C7.69331 4.03489 7.67272 4.02728 7.65556 4.01236C7.63855 3.99729 7.62766 3.98058 7.62303 3.96193C7.6202 3.95148 7.61901 3.92343 7.61901 3.87792V3.64754H7.56798V3.63158C7.60304 3.60457 7.63273 3.57607 7.65735 3.54608C7.68182 3.51624 7.70346 3.48282 7.72166 3.44582H7.73539V3.44596L7.73524 3.44582ZM7.98158 3.39628C7.99963 3.39628 8.0147 3.40314 8.02724 3.41702C8.03977 3.43089 8.04589 3.44746 8.04589 3.46685C8.04589 3.4864 8.03962 3.50296 8.02709 3.51669C8.01456 3.53042 7.99934 3.53713 7.98158 3.53713C7.96368 3.53713 7.94875 3.53027 7.93622 3.51669C7.92369 3.50296 7.91757 3.48655 7.91757 3.46685C7.91757 3.44746 7.92384 3.43075 7.93622 3.41702C7.94861 3.40314 7.96368 3.39628 7.98158 3.39628ZM8.04007 3.60263V3.94059C8.04007 3.97088 8.0432 3.99042 8.04962 3.99893C8.05618 4.00728 8.06872 4.01206 8.08767 4.0134V4.02937H7.87594V4.0134C7.8937 4.01266 7.90653 4.00728 7.91503 3.99684C7.9207 3.98983 7.92369 3.97088 7.92369 3.94059V3.69141C7.92369 3.66097 7.92041 3.64158 7.91384 3.63307C7.90728 3.62472 7.89459 3.61994 7.87594 3.6186V3.60263H8.04007V3.60248V3.60263ZM8.3079 3.60263V3.65769C8.32774 3.63426 8.34684 3.61726 8.36519 3.60651C8.38355 3.59577 8.40294 3.59055 8.42383 3.59055C8.44905 3.59055 8.46994 3.59816 8.4865 3.61353C8.50306 3.62889 8.51425 3.64814 8.51977 3.67067C8.5241 3.68813 8.52634 3.7214 8.52634 3.77064V3.93671C8.52634 3.96953 8.52902 3.98998 8.5344 3.99803C8.53977 4.00609 8.55096 4.01116 8.56797 4.0134V4.02937H8.37146V4.0134C8.38623 4.01116 8.39668 4.00445 8.40309 3.99326C8.40742 3.98565 8.40966 3.9667 8.40966 3.93671V3.74692C8.40966 3.71185 8.40846 3.68992 8.40593 3.68082C8.40339 3.67172 8.39921 3.6647 8.39339 3.65948C8.38743 3.65441 8.38086 3.65202 8.3737 3.65202C8.35012 3.65202 8.32804 3.67037 8.30775 3.70708V3.93671C8.30775 3.96864 8.31043 3.98893 8.31581 3.99714C8.32118 4.00579 8.33117 4.01101 8.34595 4.0131V4.02907H8.14959V4.0131C8.16585 4.01131 8.17734 4.00549 8.18435 3.9958C8.18913 3.98923 8.19137 3.96939 8.19137 3.93656V3.69484C8.19137 3.66232 8.18883 3.64187 8.18331 3.63412C8.17794 3.62606 8.16675 3.62099 8.14974 3.61845V3.60248H8.3079L8.30775 3.60263H8.3079ZM8.89458 3.6083H9.02514V3.65874H8.95098C8.96456 3.67351 8.97396 3.68708 8.97933 3.69917C8.9862 3.71558 8.98918 3.73274 8.98918 3.7505C8.98918 3.78079 8.98157 3.80705 8.96605 3.82928C8.95068 3.85151 8.92995 3.86882 8.90339 3.88165C8.87698 3.89418 8.85355 3.90045 8.83311 3.90045C8.83147 3.90045 8.81491 3.89971 8.78342 3.89821C8.77089 3.89821 8.7603 3.90269 8.75194 3.91164C8.74344 3.92059 8.73911 3.93149 8.73911 3.94402C8.73911 3.95506 8.74284 3.96401 8.75075 3.97103C8.75836 3.97804 8.77059 3.98162 8.7879 3.98162L8.85997 3.98073C8.91831 3.98073 8.95844 3.98774 8.98038 4.00176C9.01171 4.02116 9.02753 4.051 9.02753 4.09159C9.02753 4.1174 9.02022 4.14083 9.00589 4.16186C8.99157 4.1829 8.97262 4.19857 8.94904 4.20857C8.91323 4.22364 8.8722 4.23095 8.8255 4.23095C8.79073 4.23095 8.75866 4.22722 8.72986 4.21976C8.70106 4.21244 8.68047 4.202 8.66779 4.18902C8.65525 4.17574 8.64914 4.16186 8.64914 4.14739C8.64914 4.13351 8.65376 4.12083 8.66346 4.10994C8.67301 4.0989 8.69091 4.0895 8.71673 4.08219C8.68077 4.06264 8.66286 4.03534 8.66286 4.00057C8.66286 3.97953 8.67017 3.95909 8.6848 3.93925C8.69942 3.91925 8.72255 3.90209 8.75433 3.88747C8.71732 3.8727 8.69047 3.853 8.67391 3.82883C8.65734 3.80466 8.64914 3.77646 8.64914 3.74468C8.64914 3.70305 8.6645 3.66709 8.69554 3.63665C8.72643 3.60621 8.76626 3.59099 8.81491 3.59099C8.84057 3.59099 8.86698 3.59696 8.89428 3.60875H8.89443L8.89458 3.6083ZM8.82296 3.61934C8.807 3.61934 8.79342 3.6283 8.78238 3.6459C8.77134 3.66366 8.76582 3.70036 8.76582 3.75602C8.76582 3.80108 8.77119 3.83211 8.78208 3.84897C8.79297 3.86584 8.8061 3.87419 8.82102 3.87419C8.83759 3.87419 8.85131 3.86584 8.86235 3.84912C8.8734 3.83256 8.87892 3.80018 8.87892 3.75199C8.87892 3.69768 8.87265 3.66082 8.86027 3.64113C8.85161 3.62666 8.83908 3.61934 8.82311 3.61934H8.82296ZM8.79879 4.09263C8.77059 4.09263 8.75194 4.09502 8.74269 4.10039C8.72702 4.10964 8.71897 4.12232 8.71897 4.13829C8.71897 4.15381 8.72732 4.16768 8.74358 4.18022C8.75985 4.19275 8.79073 4.19902 8.8358 4.19902C8.87444 4.19902 8.90458 4.19335 8.92666 4.18231C8.9486 4.17126 8.95979 4.15545 8.95979 4.1353C8.95979 4.1277 8.9577 4.12128 8.95352 4.11621C8.94606 4.10725 8.93487 4.10084 8.91965 4.09755C8.90458 4.09442 8.86429 4.09263 8.79894 4.09263L8.79879 4.09248V4.09263ZM9.55244 3.59144L9.55841 3.73692H9.54394C9.52722 3.69395 9.50992 3.66455 9.49186 3.64859C9.47411 3.63292 9.4562 3.62501 9.4383 3.62501C9.42725 3.62501 9.41756 3.62919 9.40965 3.6374C9.40159 3.6459 9.39771 3.65545 9.39771 3.66634C9.39771 3.6744 9.4004 3.68231 9.40592 3.68992C9.41457 3.7023 9.43934 3.72349 9.47978 3.75378C9.52021 3.78392 9.54677 3.80958 9.5596 3.83062C9.57243 3.85151 9.57885 3.87524 9.57885 3.9012C9.57885 3.92477 9.57348 3.94805 9.56259 3.97073C9.55199 3.99356 9.53677 4.01087 9.51723 4.0231C9.49768 4.03519 9.4762 4.0413 9.45247 4.0413C9.43412 4.0413 9.40935 4.03504 9.37861 4.02206C9.37026 4.01877 9.36489 4.01698 9.3616 4.01698C9.3525 4.01698 9.34504 4.02474 9.33892 4.04026H9.32445L9.31759 3.88732H9.33206C9.3443 3.92716 9.3613 3.95685 9.38309 3.977C9.40472 3.99699 9.42502 4.00684 9.44426 4.00684C9.45754 4.00684 9.46844 4.00236 9.47679 3.99356C9.48515 3.9846 9.48933 3.97371 9.48933 3.96103C9.48933 3.94641 9.48515 3.93402 9.47709 3.92328C9.46873 3.91269 9.45023 3.89672 9.42159 3.87524C9.37936 3.84301 9.35205 3.81869 9.33967 3.80168C9.32162 3.77676 9.31251 3.7493 9.31251 3.71931C9.31251 3.68649 9.32266 3.65694 9.34325 3.63053C9.36369 3.60398 9.39338 3.5907 9.43233 3.5907C9.45337 3.5907 9.47366 3.59652 9.4932 3.60786C9.50067 3.61248 9.50663 3.61487 9.51126 3.61487C9.51633 3.61487 9.52036 3.61352 9.52334 3.61129C9.52633 3.6089 9.5311 3.60233 9.53782 3.59144H9.55229L9.55214 3.59159L9.55244 3.59144ZM9.99171 3.80048H9.77819C9.78073 3.85688 9.79446 3.90165 9.81952 3.93432C9.83877 3.95954 9.8616 3.97207 9.88846 3.97207C9.90517 3.97207 9.92024 3.96685 9.93382 3.95685C9.94739 3.94671 9.96202 3.92835 9.97738 3.90209L9.99156 3.91224C9.97052 3.95909 9.9471 3.99236 9.92173 4.01191C9.89622 4.03131 9.86667 4.04115 9.8331 4.04115C9.77566 4.04115 9.73194 4.01683 9.70224 3.96834C9.67837 3.92925 9.66658 3.88076 9.66658 3.82271C9.66658 3.75169 9.68404 3.69514 9.71911 3.65321C9.75417 3.61129 9.7952 3.59025 9.84235 3.59025C9.88159 3.59025 9.91561 3.60786 9.94471 3.64322C9.97365 3.67858 9.98917 3.73095 9.99156 3.80033L9.99171 3.80048V3.80048ZM9.88965 3.77064C9.88965 3.72185 9.88726 3.68828 9.88249 3.66993C9.87742 3.65172 9.86995 3.638 9.85981 3.62859C9.85399 3.62307 9.84623 3.62024 9.83638 3.62024C9.82206 3.62024 9.81027 3.628 9.80102 3.64337C9.78476 3.67052 9.77655 3.70753 9.77655 3.75453V3.77049H9.88965V3.77064ZM10.2249 3.60263L10.2252 3.69977C10.2507 3.65575 10.2733 3.62651 10.2925 3.61218C10.3118 3.59771 10.3303 3.59055 10.3482 3.59055C10.3635 3.59055 10.3761 3.59577 10.3853 3.60621C10.3946 3.61666 10.399 3.63143 10.399 3.65053C10.399 3.67082 10.3946 3.68664 10.3856 3.69783C10.3767 3.70902 10.3659 3.71469 10.3531 3.71469C10.3385 3.71469 10.3259 3.70947 10.3153 3.69917C10.3046 3.68873 10.2982 3.68306 10.2964 3.68201C10.2936 3.68007 10.2904 3.67918 10.2868 3.67918C10.2788 3.67918 10.2712 3.68246 10.2643 3.68917C10.253 3.69962 10.2445 3.71439 10.2386 3.73349C10.2298 3.76288 10.2255 3.79556 10.2255 3.83092L10.2258 3.9288V3.95446C10.2258 3.97192 10.2269 3.98311 10.2288 3.98804C10.2321 3.99639 10.2372 4.00251 10.2436 4.00609C10.2503 4.00997 10.2613 4.01236 10.2768 4.01325V4.02922H10.066V4.01325C10.083 4.01161 10.0945 4.00654 10.1005 3.99788C10.1066 3.98923 10.1094 3.9664 10.1094 3.92925V3.6932C10.1094 3.66843 10.1084 3.65277 10.1062 3.6459C10.1035 3.63725 10.0993 3.63083 10.0941 3.62695C10.0888 3.62293 10.0794 3.62009 10.0662 3.6186V3.60263H10.2252V3.60248L10.2249 3.60263ZM10.6417 4.0413L10.5102 3.71081C10.4944 3.67082 10.4822 3.64516 10.4732 3.63456C10.4666 3.62651 10.4574 3.62128 10.445 3.6186V3.60263H10.6514V3.6186C10.6385 3.6186 10.6296 3.62113 10.6249 3.62636C10.6182 3.63322 10.6151 3.64113 10.6151 3.65023C10.6151 3.66157 10.6211 3.68291 10.6332 3.71424L10.6973 3.87419L10.7482 3.73632C10.7628 3.69648 10.7701 3.66828 10.7701 3.65187C10.7701 3.64232 10.767 3.63471 10.7607 3.62859C10.7545 3.62263 10.7436 3.61934 10.7277 3.61875V3.60278H10.8544V3.61875C10.8423 3.62054 10.8323 3.62561 10.8246 3.63397C10.8168 3.64232 10.8053 3.66664 10.7898 3.70708L10.6609 4.0416H10.6418L10.6417 4.04145V4.0413ZM11.0078 3.39643C11.0259 3.39643 11.0409 3.40329 11.0535 3.41702C11.0659 3.43089 11.0721 3.44746 11.0721 3.46685C11.0721 3.4864 11.0659 3.50296 11.0533 3.51669C11.0408 3.53042 11.0256 3.53713 11.0078 3.53713C10.9901 3.53713 10.975 3.53027 10.9625 3.51669C10.9499 3.50296 10.9438 3.48655 10.9438 3.46685C10.9438 3.44746 10.9501 3.43075 10.9625 3.41702C10.9748 3.40329 10.9899 3.39643 11.0078 3.39643ZM11.0662 3.60263V3.94059C11.0662 3.97088 11.0694 3.99042 11.0759 3.99893C11.0824 4.00743 11.0949 4.01221 11.1139 4.01355V4.02937H10.9022V4.01355C10.9198 4.01281 10.9328 4.00743 10.9414 3.99699C10.9471 3.98998 10.9499 3.97103 10.9499 3.94074V3.69141C10.9499 3.66097 10.9466 3.64158 10.9401 3.63307C10.9335 3.62472 10.9208 3.61994 10.9022 3.6186V3.60263H11.0663V3.60248L11.0662 3.60263ZM11.4914 3.91865L11.5042 3.92955C11.4859 3.9673 11.4632 3.9952 11.4357 4.0137C11.4083 4.0322 11.3793 4.04145 11.3486 4.04145C11.2967 4.04145 11.2553 4.02012 11.2245 3.97729C11.1934 3.93447 11.1778 3.88299 11.1778 3.82301C11.1778 3.76512 11.1919 3.71394 11.2201 3.67022C11.2543 3.61711 11.3013 3.5907 11.361 3.5907C11.4013 3.5907 11.4331 3.60174 11.4568 3.62397C11.4804 3.64605 11.4923 3.67082 11.4923 3.69798C11.4923 3.71514 11.4875 3.72901 11.478 3.73946C11.4684 3.74975 11.4557 3.75482 11.4404 3.75482C11.424 3.75482 11.4105 3.74901 11.3999 3.73722C11.3892 3.72543 11.3826 3.70409 11.3801 3.6738C11.3786 3.65471 11.3744 3.64143 11.3681 3.63367C11.3616 3.62606 11.3543 3.62233 11.3456 3.62233C11.3323 3.62233 11.321 3.63009 11.3115 3.64546C11.2971 3.66873 11.29 3.70469 11.29 3.75259C11.29 3.79272 11.2958 3.83077 11.3074 3.86748C11.3192 3.90403 11.335 3.93104 11.3552 3.94894C11.3705 3.96207 11.3886 3.96849 11.4093 3.96849C11.4229 3.96849 11.4359 3.96506 11.448 3.95805C11.4601 3.95103 11.4745 3.9379 11.4912 3.91865L11.4914 3.91836V3.91865ZM11.9057 3.80048H11.6924C11.6949 3.85688 11.7086 3.90165 11.7336 3.93432C11.7528 3.95954 11.7756 3.97207 11.8026 3.97207C11.8192 3.97207 11.8343 3.96685 11.848 3.95685C11.8616 3.94671 11.8762 3.92835 11.8916 3.90209L11.9057 3.91224C11.8847 3.95909 11.8613 3.99236 11.8359 4.01191C11.8104 4.03131 11.781 4.04115 11.7473 4.04115C11.6898 4.04115 11.6461 4.01683 11.6164 3.96834C11.5926 3.92925 11.5808 3.88076 11.5808 3.82271C11.5808 3.75169 11.5984 3.69514 11.6334 3.65321C11.6685 3.61129 11.7095 3.59025 11.7565 3.59025C11.7958 3.59025 11.8299 3.60786 11.8589 3.64322C11.8878 3.67858 11.9034 3.73095 11.9056 3.80033L11.9057 3.80048V3.80048ZM11.8037 3.77064C11.8037 3.72185 11.8013 3.68828 11.7965 3.66993C11.7915 3.65172 11.7841 3.638 11.7738 3.62859C11.768 3.62307 11.7603 3.62024 11.7504 3.62024C11.7361 3.62024 11.7245 3.628 11.7151 3.64337C11.6988 3.67052 11.6906 3.70753 11.6906 3.75453V3.77049H11.8037V3.77064Z" fill="white"/>
<path d="M5.0122 1.41315L5.02354 1.95597H4.97788C4.95624 1.82004 4.90342 1.71082 4.81912 1.62801C4.73437 1.54535 4.64306 1.50387 4.54503 1.50387C4.46908 1.50387 4.4091 1.52551 4.36508 1.56938C4.32047 1.61279 4.29854 1.66308 4.29854 1.71963C4.29854 1.75559 4.30659 1.78767 4.32196 1.81587C4.3433 1.85302 4.37791 1.89032 4.42581 1.92732C4.46087 1.95359 4.54145 2.00059 4.66768 2.06773C4.84464 2.16098 4.964 2.24946 5.02563 2.33257C5.0868 2.41553 5.11709 2.51058 5.11709 2.61771C5.11709 2.75364 5.0677 2.87032 4.96923 2.9682C4.8709 3.06593 4.74586 3.11517 4.59412 3.11517C4.54667 3.11517 4.50146 3.1098 4.45923 3.0995C4.41671 3.08935 4.36344 3.06966 4.29958 3.04056C4.26377 3.0246 4.23453 3.01684 4.2114 3.01684C4.192 3.01684 4.17186 3.0249 4.15007 3.04101C4.12844 3.05742 4.11098 3.08189 4.0977 3.11517H4.05891V2.50133H4.0977C4.13038 2.67351 4.19349 2.80526 4.2866 2.89583C4.38 2.9864 4.48027 3.03176 4.58845 3.03176C4.6717 3.03176 4.73825 3.00714 4.78749 2.9585C4.83688 2.90986 4.86165 2.85316 4.86165 2.78825C4.86165 2.75021 4.8521 2.7129 4.83315 2.67694C4.8142 2.64099 4.7857 2.60712 4.74691 2.57429C4.70811 2.54206 4.63977 2.49983 4.54174 2.44791C4.40418 2.3754 4.3054 2.31318 4.24527 2.262C4.18559 2.21082 4.13963 2.15352 4.1074 2.09056C4.07502 2.02714 4.05906 1.95746 4.05906 1.88182C4.05906 1.75186 4.10322 1.64144 4.1917 1.55013C4.27989 1.45896 4.39119 1.41345 4.52578 1.41345C4.57472 1.41345 4.62232 1.41972 4.66827 1.43225C4.70319 1.4421 4.74571 1.45971 4.79585 1.48552C4.84598 1.51133 4.88104 1.52402 4.90119 1.52402C4.92058 1.52402 4.93565 1.51775 4.94684 1.50507C4.95789 1.49238 4.96848 1.4618 4.97788 1.4133H5.01205V1.41345L5.0122 1.41315ZM6.29583 2.52371L6.70869 1.44986H7.32014V1.49164H7.2712C7.22704 1.49164 7.19138 1.50029 7.16482 1.5173C7.14617 1.52864 7.13139 1.54759 7.12035 1.5746C7.11245 1.59429 7.10827 1.64502 7.10827 1.72724V2.80049C7.10827 2.88434 7.11245 2.93671 7.12035 2.95775C7.12871 2.97864 7.14512 2.997 7.17049 3.01266C7.19555 3.02863 7.22898 3.03653 7.2712 3.03653H7.32014V3.07816H6.53352V3.03653H6.58246C6.62662 3.03653 6.66229 3.02788 6.68884 3.01117C6.7075 2.99953 6.72227 2.98043 6.73331 2.95298C6.74122 2.93373 6.74539 2.88315 6.74539 2.80064V1.59549L6.16468 3.07816H6.13812L5.54964 1.60623V2.75155C5.54964 2.83227 5.55158 2.88181 5.55531 2.90016C5.56516 2.9403 5.58605 2.97312 5.61828 2.99849C5.65051 3.02385 5.70154 3.03653 5.77062 3.03653V3.07816H5.25302V3.03653H5.26898C5.30256 3.03728 5.33359 3.03161 5.36239 3.01893C5.39163 3.00625 5.41327 2.98939 5.42819 2.9685C5.44341 2.94776 5.45475 2.91821 5.46265 2.88017C5.4643 2.87121 5.46489 2.83033 5.46489 2.75647V1.72754C5.46489 1.64368 5.46116 1.59131 5.45281 1.57087C5.44475 1.54998 5.42804 1.53163 5.40267 1.51551C5.37716 1.49955 5.34344 1.49164 5.30121 1.49164H5.25287V1.45001H5.8691L6.29553 2.52386L6.29568 2.52371H6.29583ZM8.307 2.61413H7.77836L7.71271 2.77289C7.69167 2.82615 7.68152 2.87032 7.68152 2.90493C7.68152 2.95119 7.69868 2.98521 7.7324 3.00729C7.75255 3.01997 7.80193 3.02982 7.88057 3.03653V3.07816H7.37863V3.03653C7.43265 3.02758 7.47741 3.00296 7.51202 2.96327C7.54694 2.92314 7.59036 2.84033 7.64139 2.71514L8.18092 1.41793H8.20226L8.74687 2.75125C8.79894 2.87897 8.84147 2.95954 8.87504 2.99282C8.9004 3.01818 8.93576 3.03251 8.98217 3.03668V3.07831H8.2518V3.03668H8.28179C8.34028 3.03668 8.38176 3.02773 8.40533 3.00953C8.42159 2.99685 8.42965 2.97805 8.42965 2.95387C8.42965 2.9391 8.42771 2.92403 8.42309 2.90851C8.42159 2.9015 8.41055 2.87077 8.38966 2.8172L8.3073 2.61413L8.30715 2.61428L8.307 2.61413ZM8.27134 2.5258L8.04589 1.97104L7.81536 2.5258H8.27134V2.5258ZM9.61376 2.3366V2.79586C9.61376 2.88345 9.61869 2.9391 9.62898 2.96163C9.63883 2.98461 9.65674 3.00266 9.68165 3.01609C9.70717 3.02952 9.75432 3.03653 9.8234 3.03653V3.07816H9.05065V3.03653C9.12048 3.03653 9.16778 3.02952 9.1927 3.01565C9.21777 3.00177 9.23537 2.98327 9.24507 2.96119C9.25537 2.93865 9.26044 2.8833 9.26044 2.79571V1.73231C9.26044 1.64428 9.25537 1.58907 9.24507 1.56654C9.23522 1.54356 9.21732 1.52551 9.1924 1.51208C9.16689 1.4985 9.11974 1.49164 9.05065 1.49164V1.44986H9.75283C9.93546 1.44986 10.069 1.46329 10.1537 1.49074C10.2385 1.5179 10.3076 1.56818 10.3613 1.64189C10.415 1.71515 10.4416 1.80109 10.4416 1.89972C10.4416 2.01968 10.4014 2.11906 10.3212 2.19769C10.2698 2.24752 10.1981 2.28483 10.1057 2.30945L10.4678 2.86092C10.5157 2.93179 10.5499 2.97596 10.57 2.99356C10.6005 3.01818 10.6361 3.03161 10.6764 3.034V3.07816H10.2006L9.71299 2.33645H9.61391H9.61376V2.3366ZM9.61376 1.54088V2.25081H9.67733C9.78058 2.25081 9.85817 2.24051 9.90949 2.22052C9.96082 2.20008 10.0011 2.16307 10.0304 2.11025C10.0597 2.05743 10.0745 1.9882 10.0745 1.90315C10.0745 1.77961 10.0475 1.68829 9.9935 1.62936C9.93949 1.57042 9.85294 1.54088 9.73313 1.54088H9.61376ZM12.0126 1.45001V1.88972H11.9738C11.9499 1.78826 11.9237 1.71545 11.8947 1.67113C11.8659 1.62652 11.8261 1.59131 11.7755 1.5652C11.7473 1.55072 11.6979 1.54356 11.6272 1.54356H11.5132V2.80094C11.5132 2.88479 11.5174 2.93731 11.5257 2.9582C11.5341 2.97909 11.5509 2.99744 11.5752 3.01311C11.5999 3.02907 11.6333 3.03698 11.6758 3.03698H11.7254V3.07861H10.9387V3.03698H10.9886C11.032 3.03698 11.0669 3.02833 11.0935 3.01162C11.1124 2.99998 11.1276 2.98088 11.1387 2.95343C11.1467 2.93418 11.1508 2.8836 11.1508 2.80109V1.54371H11.0414C10.9404 1.54371 10.867 1.56699 10.821 1.61324C10.7568 1.67785 10.7166 1.76991 10.6994 1.88987H10.656V1.45016H12.0127H12.0129L12.0126 1.45001Z" fill="white"/>
<path d="M2.23857 3.5701C2.23484 3.4961 2.23783 2.62428 2.23872 2.55892C2.24022 2.44015 2.33496 2.34391 2.45373 2.34391C2.5725 2.34391 2.66859 2.44015 2.66859 2.55892C2.66859 2.67754 2.57623 2.75916 2.45761 2.75916C2.40315 2.75916 2.17725 2.75826 2.11354 2.75826C2.04998 2.75826 1.76797 2.75901 1.71366 2.75901C1.59489 2.75901 1.50253 2.67724 1.50253 2.55877C1.50253 2.44 1.59877 2.34377 1.71754 2.34377C1.83631 2.34377 1.9324 2.44 1.9324 2.55877C1.9324 2.75856 1.93255 3.59234 1.93255 3.59234L2.23857 3.5701ZM1.77812 3.90895H2.45045C2.50357 3.90895 2.54699 3.97177 2.54699 4.04846V4.05413C2.54699 4.13083 2.50357 4.19349 2.45045 4.19349H1.77812C1.725 4.19349 1.68158 4.13068 1.68158 4.05413V4.04846C1.68158 3.97162 1.725 3.90895 1.77812 3.90895V3.90895ZM1.63622 3.59234H2.59235C2.6677 3.59234 2.72947 3.65411 2.72947 3.72961V3.73528C2.72947 3.81078 2.6677 3.87255 2.59235 3.87255H1.63622C1.56072 3.87255 1.49895 3.81078 1.49895 3.73528V3.72961C1.49895 3.65411 1.56072 3.59234 1.63622 3.59234ZM2.11428 1.00015C2.72962 1.00015 3.22842 1.49895 3.22842 2.11428C3.22842 2.5637 2.96238 2.95089 2.57922 3.12711C2.57907 3.53146 2.57922 3.12711 2.58026 3.5901C2.50521 3.5901 1.75604 3.58935 1.65443 3.58935C1.65234 3.53564 1.65263 3.50192 1.65338 3.1289C1.26813 2.95358 1 2.56519 1 2.11413C1 1.4988 1.49895 1 2.11428 1V1.00015Z" stroke="#F7705A" stroke-width="0.140106" stroke-miterlimit="22.9256"/>
</svg>
